<svg width="25" height="25" viewBox="0 0 25 25" fill="none" xmlns="http://www.w3.org/2000/svg">
<path id="coolicon" d="M23.4336 25C10.1029 25.0189 -0.0142463 14.7805 1.50585e-05 1.56642C1.50585e-05 0.703477 0.699571 0 1.56252 0H5.68651C6.46084 0 7.11864 0.568952 7.23235 1.33489C7.50486 3.17062 8.03933 4.95776 8.81951 6.64172L8.98007 6.98829C9.20333 7.47017 9.052 8.04272 8.61981 8.35136C7.34266 9.26342 6.85457 11.0993 7.84953 12.5318C9.09809 14.3294 10.672 15.903 12.4692 17.151C13.9016 18.1456 15.7372 17.6576 16.6492 16.3807C16.9581 15.9483 17.531 15.7969 18.0131 16.0202L18.3581 16.18C20.0422 16.9601 21.8295 17.4946 23.6654 17.7671C24.4313 17.8808 25 18.5386 25 19.3129V23.4375C25 24.3004 24.2987 25 23.4358 25L23.4336 25Z" fill="white"/>
</svg>
